<svg id="Capa_1" enable-background="new 0 0 512 512" viewBox="0 0 512 512" xmlns="http://www.w3.org/2000/svg"><g><path d="m382.241 332.759h-252.483c-17.092 0-30.948-13.856-30.948-30.948v-144.622c0-86.674 70.515-157.189 157.19-157.189s157.189 70.515 157.189 157.189v144.622c0 17.092-13.856 30.948-30.948 30.948zm-221.535-61.895h190.587v-113.675c0-52.545-42.749-95.293-95.294-95.293s-95.294 42.749-95.294 95.293v113.675z" fill="#f9f6f6"></path><g fill="#dddaec"><path d="m127.627 301.811v-144.622c0-81.817 62.835-149.222 142.781-156.522-4.747-.434-9.55-.667-14.408-.667-86.675 0-157.19 70.515-157.19 157.189v144.622c0 17.092 13.856 30.948 30.948 30.948h28.816c-17.091 0-30.947-13.856-30.947-30.948z"></path><path d="m284.816 61.896c-4.897 0-9.708.372-14.408 1.088 45.733 6.966 80.886 46.557 80.886 94.205v113.674h28.816v-113.674c0-52.545-42.749-95.293-95.294-95.293z"></path></g><path d="m466.693 264.767v184.248c0 34.779-28.206 62.985-63.006 62.985h-295.374c-34.8 0-63.006-28.206-63.006-62.985v-184.248c0-34.789 28.206-62.985 63.006-62.985h295.373c34.8 0 63.007 28.196 63.007 62.985z" fill="#df75a5"></path><path d="m165.937 512h-57.625c-34.796 0-63-28.204-63-62.989v-184.243c0-34.785 28.204-62.989 63-62.989h57.625c-34.796 0-62.999 28.204-62.999 62.989v184.243c-.001 34.785 28.203 62.989 62.999 62.989z" fill="#dd5790"></path><g><g fill="#ffc250"><path d="m229.277 497.093v14.907h-28.866v-8.911l-56.753-56.773c-5.645-5.635-5.645-14.773 0-20.408 5.635-5.635 14.773-5.635 20.408 0l60.976 60.987c2.71 2.709 4.235 6.376 4.235 10.198z"></path><path d="m394.93 408.899-56.753 56.763v46.338h-28.876v-52.323c0-3.832 1.525-7.5 4.224-10.199l60.987-60.997c5.635-5.625 14.783-5.625 20.418 0 5.635 5.635 5.635 14.783 0 20.418z"></path><path d="m283.732 430.657v81.343h-28.866v-75.358l-38.632-38.622c-5.635-5.645-5.635-14.783 0-20.428 5.635-5.635 14.773-5.635 20.408 0l42.855 42.866c2.711 2.71 4.235 6.377 4.235 10.199z"></path></g><circle cx="153.857" cy="436.118" fill="#ffe07d" r="28.982"></circle><path d="m163.815 463.351c-3.101 1.133-6.458 1.754-9.965 1.754-16.006 0-28.975-12.98-28.975-28.986s12.969-28.986 28.975-28.986c3.507 0 6.864.62 9.965 1.754-11.098 4.074-19.021 14.723-19.021 27.233 0 12.508 7.923 23.157 19.021 27.231z" fill="#ffc250"></path><circle cx="384.72" cy="398.696" fill="#ffe07d" r="28.982"></circle><path d="m394.679 425.929c-3.101 1.133-6.458 1.754-9.965 1.754-16.006 0-28.975-12.98-28.975-28.986s12.969-28.986 28.975-28.986c3.507 0 6.864.62 9.965 1.754-11.098 4.074-19.021 14.723-19.021 27.233 0 12.508 7.923 23.157 19.021 27.231z" fill="#ffc250"></path><circle cx="226.436" cy="387.804" fill="#ffe07d" r="28.982"></circle><path d="m236.395 415.037c-3.101 1.133-6.458 1.754-9.965 1.754-16.006 0-28.975-12.98-28.975-28.986s12.969-28.986 28.975-28.986c3.507 0 6.864.62 9.965 1.754-11.098 4.074-19.021 14.723-19.021 27.233 0 12.508 7.922 23.157 19.021 27.231z" fill="#ffc250"></path></g><g fill="#544f57"><path d="m257.85 264.575c-4.281 0-7.773.29-10.856.838l4.189-25.287h30.583c4.267 0 7.726-3.459 7.726-7.726s-3.459-7.726-7.726-7.726h-37.134c-3.78 0-7.005 2.734-7.622 6.463l-7.357 44.402c-.477 2.876.716 5.77 3.068 7.491 2.352 1.722 5.482 1.969 8.08.647.072-.037.397-.199.928-.438 4.309-1.94 7.76-3.211 16.121-3.211 6.228 0 12.023 2.491 16.318 7.015 4.292 4.521 6.477 10.45 6.153 16.695-.607 11.702-10.272 21.054-22.003 21.29-7.435.157-14.442-3.366-18.772-9.403-2.485-3.467-7.312-4.263-10.781-1.776-3.468 2.486-4.263 7.313-1.776 10.781 7.147 9.968 18.642 15.856 30.872 15.856.255 0 .512-.003.768-.008 19.792-.399 36.099-16.185 37.123-35.939.546-10.519-3.14-20.511-10.378-28.135-7.137-7.518-17.169-11.829-27.524-11.829z"></path><path d="m200.563 324.805c-12.876.162-26.661.253-36.366.22 5.516-7.265 14.331-19.067 27.607-38.036 6.06-8.659 9.998-16.781 11.705-24.141.214-1.207.645-4.35.688-5.569 0-18.205-14.811-33.017-33.017-33.017-15.742 0-29.367 11.198-32.397 26.625-.822 4.188 1.905 8.248 6.093 9.071 4.184.822 8.248-1.905 9.07-6.092 1.611-8.2 8.859-14.151 17.234-14.151 9.535 0 17.32 7.637 17.558 17.116l-.368 2.883c-1.311 5.345-4.413 11.537-9.226 18.415-15.697 22.428-25.068 34.698-30.103 41.289-6.093 7.977-7.931 10.385-6.547 14.886.788 2.561 2.74 4.53 5.356 5.401 1.059.354 2.399.8 21.078.8 7.471 0 17.717-.071 31.828-.249 4.267-.054 7.682-3.556 7.629-7.823-.052-4.266-3.556-7.664-7.822-7.628z"></path><path d="m343.62 267.871c-3.832 0-7.524.601-10.994 1.706 9.53-18.429 22.326-28.267 22.515-28.408 3.407-2.55 4.112-7.379 1.57-10.797-2.547-3.424-7.386-4.135-10.811-1.589-1.339.996-32.686 24.8-38.133 69.678-.296 1.863-.454 3.772-.454 5.717 0 20.02 16.288 36.307 36.308 36.307s36.307-16.287 36.307-36.307-16.288-36.307-36.308-36.307zm0 57.162c-11.499 0-20.855-9.355-20.855-20.855s9.356-20.855 20.855-20.855c11.5 0 20.855 9.355 20.855 20.855s-9.355 20.855-20.855 20.855z"></path></g></g></svg>